<svg width="47" height="44" viewBox="0 0 47 44" fill="none" xmlns="http://www.w3.org/2000/svg">
<path fill-rule="evenodd" clip-rule="evenodd" d="M7.95659 4.29045C12.3508 4.29045 15.9132 7.8285 15.9132 12.1928C15.9132 13.6616 15.5091 15.0365 14.8063 16.2147H14.807C19.6188 14.7463 24.1732 12.0728 27.9837 7.27834L29.3462 5.39086L29.3481 5.38829L31.7691 2.0341C33.3476 -0.152829 36.4431 -0.655749 38.6438 0.913824C40.8446 2.4834 41.3504 5.55461 39.7719 7.74162L37.3489 11.0984L25.2264 27.8931C29.2888 26.0654 33.7708 24.4026 37.9734 24.1154C38.3235 24.0686 38.6805 24.044 39.0434 24.044C43.4376 24.044 47 27.5821 47 31.9463C47 36.3107 43.4376 39.8487 39.0434 39.8487C34.6491 39.8487 31.0867 36.3107 31.0867 31.9463C31.0867 30.4799 31.4894 29.107 32.1903 27.9299H32.1896C27.3778 29.3983 22.67 31.9194 18.8595 36.7138L17.4915 38.6091L17.4895 38.6117L15.0685 41.9659C13.49 44.1528 10.3945 44.6557 8.19378 43.0862C5.993 41.5166 5.48721 38.4454 7.06573 36.2584L9.48871 32.9016L21.376 16.4329C17.2886 18.2718 13.1706 19.7628 8.94568 20.0347L8.94601 20.0344C8.62184 20.0744 8.29168 20.0951 7.95668 20.0951C3.56236 20.0951 0 16.557 0 12.1927C0 7.82842 3.56236 4.29036 7.95668 4.29036L7.95659 4.29045Z" fill="#325FEC"/>
</svg>
